<?xml version="1.0" encoding="UTF-8" standalone="no"?>
<!DOCTYPE svg PUBLIC "-//W3C//DTD SVG 1.1//EN" "http://www.w3.org/Graphics/SVG/1.1/DTD/svg11.dtd">
<svg version="1.1" xmlns="http://www.w3.org/2000/svg" xmlns:xlink="http://www.w3.org/1999/xlink" preserveAspectRatio="xMidYMid meet" viewBox="0 0 1600 900" width="1600" height="900"><defs><path d="M1563.76 182.46C1592.49 141.02 1562.83 84.38 1512.41 84.38C1393.57 84.38 1156.43 84.38 1037.59 84.38C987.17 84.38 957.51 141.02 986.24 182.46C1043.99 265.75 1149.24 417.54 1206.99 500.83C1239.9 548.3 1310.1 548.3 1343.01 500.83C1400.76 417.54 1506.01 265.75 1563.76 182.46Z" id="gGevZdlJc"></path><linearGradient id="gradientbm1pxy3ns" gradientUnits="userSpaceOnUse" x1="1262.5" y1="527.5" x2="1262.5" y2="80.62"><stop style="stop-color: #da6200;stop-opacity: 1" offset="0%"></stop><stop style="stop-color: #ff8a2a;stop-opacity: 1" offset="100%"></stop></linearGradient><path d="M1067.5 760.29C1086.66 787.92 1066.89 825.69 1033.27 825.69C954.05 825.69 795.95 825.69 716.73 825.69C683.11 825.69 663.34 787.92 682.5 760.29C721 704.77 791.16 603.58 829.66 548.05C851.6 516.4 898.4 516.4 920.34 548.05C958.84 603.58 1029 704.77 1067.5 760.29Z" id="abIp0V57R"></path><linearGradient id="gradientccSbpFNZi" gradientUnits="userSpaceOnUse" x1="875" y1="522.71" x2="875" y2="825.69"><stop style="stop-color: #008cff;stop-opacity: 1" offset="0%"></stop><stop style="stop-color: #00589f;stop-opacity: 1" offset="100%"></stop></linearGradient></defs><g><g><g><use xlink:href="#gGevZdlJc" opacity="1" fill="url(#gradientbm1pxy3ns)"></use></g><g><use xlink:href="#abIp0V57R" opacity="1" fill="url(#gradientccSbpFNZi)"></use></g></g></g></svg>